<?xml version="1.0" encoding="utf-8"?>
<svg version="1.1" xmlns:xlink="http://www.w3.org/1999/xlink" width="12px" height="12px" viewBox="60 2455  12 12" xmlns="http://www.w3.org/2000/svg">
  <path d="M 66 2455  C 69.36 2455  72 2457.64  72 2461  C 72 2464.36  69.36 2467  66 2467  C 62.64 2467  60 2464.36  60 2461  C 60 2457.64  62.64 2455  66 2455  Z " fill-rule="nonzero" fill="#ffffff" stroke="none" />
  <path d="M 66 2455.5  C 69.08 2455.5  71.5 2457.92  71.5 2461  C 71.5 2464.08  69.08 2466.5  66 2466.5  C 62.92 2466.5  60.5 2464.08  60.5 2461  C 60.5 2457.92  62.92 2455.5  66 2455.5  Z " stroke-width="1" stroke="#797979" fill="none" />
  <path d="M 66 2464  C 64.32 2464  63 2462.68  63 2461  C 63 2459.32  64.32 2458  66 2458  C 67.68 2458  69 2459.32  69 2461  C 69 2462.68  67.68 2464  66 2464  " fill-rule="nonzero" fill="#797979" stroke="none" />
</svg>