<?xml version="1.0" encoding="utf-8"?>
<svg version="1.1" xmlns:xlink="http://www.w3.org/1999/xlink" width="12px" height="12px" viewBox="210 2705  12 12" xmlns="http://www.w3.org/2000/svg">
  <path d="M 216 2705  C 219.36 2705  222 2707.64  222 2711  C 222 2714.36  219.36 2717  216 2717  C 212.64 2717  210 2714.36  210 2711  C 210 2707.64  212.64 2705  216 2705  Z " fill-rule="nonzero" fill="#ffffff" stroke="none" />
  <path d="M 216 2705.5  C 219.08 2705.5  221.5 2707.92  221.5 2711  C 221.5 2714.08  219.08 2716.5  216 2716.5  C 212.92 2716.5  210.5 2714.08  210.5 2711  C 210.5 2707.92  212.92 2705.5  216 2705.5  Z " stroke-width="1" stroke="#797979" fill="none" />
  <path d="M 216 2714  C 214.32 2714  213 2712.68  213 2711  C 213 2709.32  214.32 2708  216 2708  C 217.68 2708  219 2709.32  219 2711  C 219 2712.68  217.68 2714  216 2714  " fill-rule="nonzero" fill="#797979" stroke="none" />
</svg>