<?xml version="1.0" encoding="utf-8"?>
<svg version="1.1" xmlns:xlink="http://www.w3.org/1999/xlink" width="12px" height="12px" viewBox="364 2705  12 12" xmlns="http://www.w3.org/2000/svg">
  <path d="M 370 2705  C 373.36 2705  376 2707.64  376 2711  C 376 2714.36  373.36 2717  370 2717  C 366.64 2717  364 2714.36  364 2711  C 364 2707.64  366.64 2705  370 2705  Z " fill-rule="nonzero" fill="#f0f0f0" stroke="none" />
  <path d="M 370 2705.5  C 373.08 2705.5  375.5 2707.92  375.5 2711  C 375.5 2714.08  373.08 2716.5  370 2716.5  C 366.92 2716.5  364.5 2714.08  364.5 2711  C 364.5 2707.92  366.92 2705.5  370 2705.5  Z " stroke-width="1" stroke="#797979" fill="none" />
  <path d="M 370 2714  C 368.32 2714  367 2712.68  367 2711  C 367 2709.32  368.32 2708  370 2708  C 371.68 2708  373 2709.32  373 2711  C 373 2712.68  371.68 2714  370 2714  " fill-rule="nonzero" fill="#797979" stroke="none" />
</svg>