<?xml version="1.0" encoding="utf-8"?>
<svg version="1.1" xmlns:xlink="http://www.w3.org/1999/xlink" width="12px" height="12px" viewBox="214 2455  12 12" xmlns="http://www.w3.org/2000/svg">
  <path d="M 220 2455  C 223.36 2455  226 2457.64  226 2461  C 226 2464.36  223.36 2467  220 2467  C 216.64 2467  214 2464.36  214 2461  C 214 2457.64  216.64 2455  220 2455  Z " fill-rule="nonzero" fill="#f0f0f0" stroke="none" />
  <path d="M 220 2455.5  C 223.08 2455.5  225.5 2457.92  225.5 2461  C 225.5 2464.08  223.08 2466.5  220 2466.5  C 216.92 2466.5  214.5 2464.08  214.5 2461  C 214.5 2457.92  216.92 2455.5  220 2455.5  Z " stroke-width="1" stroke="#797979" fill="none" />
  <path d="M 220 2464  C 218.32 2464  217 2462.68  217 2461  C 217 2459.32  218.32 2458  220 2458  C 221.68 2458  223 2459.32  223 2461  C 223 2462.68  221.68 2464  220 2464  " fill-rule="nonzero" fill="#797979" stroke="none" />
</svg>